<?xml version="1.0" encoding="utf-8"?>
<svg viewBox="516.349 520.383 1015.163 1015.035" xmlns="http://www.w3.org/2000/svg">
  <defs>
    <style>.cls-1{fill:#d86a4c;}.cls-2{fill:#fcfcfc;}.cls-3{fill:#444265;}</style>
  </defs>
  <g id="Ebene_2" data-name="Ebene 2">
    <circle class="cls-1" cx="1024" cy="1027.9" r="507.48"/>
  </g>
  <g id="Ebene_1" data-name="Ebene 1">
    <path class="cls-3" d="M803.49,1224.69c0-63.26-.09-126.53.1-189.8,0-7.29-2.16-12.08-7.91-17.15-32.53-28.67-50.83-64.77-53.52-108.3-2.12-34.35,6-66.15,24.71-95.13,2.37-3.67,2.78-7.07,1.69-11.39-4.89-19.26-9.39-38.63-14-58-1.33-5.58-2-11.21.73-16.56,3.65-7.22,10.89-9.62,21.83-7.48,25,4.9,50,9.71,75,14.75,18.63,3.76,36.28,2.78,54.24-5.08,32-14,65.79-20.81,100.69-23.63,59.83-4.82,118.14,1.51,174.51,22,12.26,4.46,23.3,3.79,35.33,1.48,29.51-5.68,59.12-10.86,88.72-16.11,11.6-2.06,20.09,5,19.93,17.28-.25,19.13-3.77,37.88-7.86,56.51a42.28,42.28,0,0,1-1.69,6.22c-5.69,14.78-2.15,27.82,4.34,42,28.92,63.13,10.23,139-44.11,182.79-6.48,5.22-9,10.72-8.91,19.11.53,68.73-16.73,132.42-55.62,189.6-43.24,63.59-103.16,104-176.32,125.62-34,10-68.84,14.25-104.18,14.44-5.61,0-9.67,2.39-13.87,5.41-22.47,16.14-44.08,33.63-69.38,45.42-10.48,4.89-21.08,9.55-33.05,9.46-9.4-.07-11-1.2-11.12-10.53-.25-29.07-.27-58.14-.3-87.22Q803.45,1277.6,803.49,1224.69Z"/>
    <path class="cls-1" d="M1230.51,1130.25c-5.17-5.23-9.49-11.42-15.7-15.68-30-20.5-61-16.25-88.88,9.52-21.29,19.69-38.75,43.15-56.36,66.22a730.38,730.38,0,0,1-115.93,120.62c-28.19,23.26-55.06,48.19-86.1,67.78-9.3,5.87-19.3,10.64-29,15.87-4.61,2.49-7,2.43-7-4.2q.22-171.63,0-343.26c0-6.53,2.21-6.27,7-4.4,56.52,21.88,108,12.82,154.51-25.6,4.83-4,6.56-2.65,8.38,2.44,5.71,15.94,11.68,31.79,17.47,47.71a31.43,31.43,0,0,0,4.2,8.66c6.95,9.13,17.25,8.42,22.66-1.73,10-18.75,20.12-37.45,29.76-56.39,3-5.87,4.67-7.64,10.66-2.45,29.87,25.92,64.83,38.63,104.41,37.59a129,129,0,0,0,44.79-9.2c6.32-2.53,9-2.1,8.82,5.89-.46,25.41-4.59,50.24-10.56,74.83C1233.2,1126.38,1233.17,1128.81,1230.51,1130.25Z"/>
    <path class="cls-1" d="M770.22,899.52c-1.59-68.65,54.3-129,124.43-128.79,71.64.26,126.5,58.53,126.07,130.11-.42,68.69-54.11,127.2-125.2,127.62C823.69,1028.88,767.92,966.18,770.22,899.52Z"/>
    <path class="cls-1" d="M1290.67,967.43c-24.53,36.91-58.46,58.5-103.14,59.5-61.88,1.39-115.09-43.41-126.15-104.4-12.92-71.28,31.37-138.44,102.52-151,45.16-8,84.67,6.7,115.06,42,22.79,26.43,32.68,57.64,31.06,92.44a123,123,0,0,1-9.56,42.22C1297.47,954.71,1294.58,961.33,1290.67,967.43Z"/>
    <path class="cls-1" d="M965.83,1335.71c17.61-16.16,35.39-32.12,52.78-48.5,31.59-29.77,57.82-64.19,84.66-98.08,12.83-16.2,25.82-32.32,40.73-46.71,26-25.06,61-16.37,72.84,17.83a15.27,15.27,0,0,1-.5,12.39c-27.32,56.68-68.15,100.57-123.55,130.67-4.47,2.42-9.12,4.53-13.69,6.78-20.66,9.49-41.89,17.36-64.1,22.36-15.1,3.4-30.27,6.54-45.78,7.4C966.88,1340,962,1341.14,965.83,1335.71Z"/>
    <path class="cls-1" d="M1033.66,836.7c-20.24-42.74-52.25-72.24-98.05-86.2C956.17,727.64,1109.9,725,1151,746.6c-5.26,3.25-11.17,3.74-16.49,5.79-38.32,14.76-67.1,40-85.06,77.16-1.4,2.9-2.85,5.79-4.27,8.69-1.42,2.57-2,5.47-3.15,8.14h0c-1.69,2.23-3.12,2.56-4.56-.33S1035.74,839.48,1033.66,836.7Z"/>
    <path class="cls-1" d="M1040.24,947c5.18,13.87,12.15,26.38,19.63,38.62a5.1,5.1,0,0,1,.34,5.31c-7.64,15.24-15.16,30.55-24.79,46.45a470.81,470.81,0,0,1-16.09-45.56,6.5,6.5,0,0,1,.76-4.62C1027.82,974.44,1035,961.45,1040.24,947Z"/>
    <path class="cls-1" d="M1279.47,778.37c-9.13-8.48-19.81-14.58-30.82-20.19-1.78-.91-4.6-1.46-4-4.22.44-2.16,3.07-1.94,4.74-2.28,14.68-3,29.42-5.73,44.12-8.64,5.8-1.14,8,1.07,7,6.86-1.73,10.55-3.35,21.13-5,31.69-2.31,8.72-3,8.92-9.53,2.56A48.23,48.23,0,0,0,1279.47,778.37Z"/>
    <path class="cls-1" d="M830.62,757.16c-11.44,8.92-23.29,15.69-33.62,24.66-2.69,2.33-4.57,1.11-5.32-1.8q-3.46-13.63-6.56-27.38c-.61-2.73,0-4.75,3.79-3.93C802.79,751.64,816.71,754.36,830.62,757.16Z"/>
    <path class="cls-1" d="M1290.67,967.43a70.37,70.37,0,0,1,9.79-19.3C1299.07,955.51,1296.19,962.14,1290.67,967.43Z"/>
    <path class="cls-3" d="M961.36,903.18c0,34.85-27.21,62.65-61.36,62.63-35,0-63.5-29-63.59-64.75-.09-35.25,26.52-62.68,60.92-62.81C932.93,838.12,961.33,866.92,961.36,903.18Z"/>
    <path class="cls-3" d="M1247.23,902.31c-.08,34.83-27.28,62.26-61.9,62-35.18-.27-63.58-28.23-63.65-64.89-.07-35.55,26.65-61.91,61.74-62.51C1218.8,836.29,1247.31,866,1247.23,902.31Z"/>
    <path class="cls-1" d="M862.26,901.2c-.13-21.24,14.79-36.55,35-37.17,17.22-.52,39.33,18.58,38.45,38.91-.91,20.87-15.29,36.83-35.47,37C879.44,940.1,862.4,922.7,862.26,901.2Z"/>
    <path class="cls-1" d="M1221.35,902.18c0,20.63-15.06,36.17-35.13,36.26-21.45.09-39.39-18.29-39-39.92.38-19.37,16.78-35.95,35.45-35.83C1203.59,862.83,1221.35,881,1221.35,902.18Z"/>
  </g>
</svg>