<?xml version="1.0" encoding="utf-8"?>
<svg viewBox="0 0 1015.2 1014.96" xmlns="http://www.w3.org/2000/svg">
  <defs>
    <style>.cls-1{fill:#444265;}.cls-2{fill:#fcfcfc;}.cls-3{fill:#d86a4c;}.cls-4{fill:#454264;}.cls-5{fill:#464264;}.cls-6{fill:#484364;}.cls-7{fill:#784f5b;}.cls-8{fill:#ad5e52;}.cls-9{fill:#855359;}.cls-10{fill:#774f5b;}</style>
  </defs>
  <g id="Ebene_2" data-name="Ebene 2">
    <circle class="cls-1" cx="507.71" cy="507.48" r="507.48"/>
  </g>
  <g id="Ebene_1" data-name="Ebene 1">
    <path class="cls-3" d="M355,420.32c0-39.15-.06-78.3.06-117.45,0-4.51-1.34-7.48-4.89-10.61-20.14-17.74-31.46-40.08-33.12-67a95.25,95.25,0,0,1,15.29-58.87,8.19,8.19,0,0,0,1-7.05c-3-11.92-5.81-23.9-8.66-35.87-.82-3.45-1.23-6.93.45-10.24,2.26-4.47,6.74-6,13.51-4.63,15.48,3,31,6,46.44,9.13,11.53,2.32,22.45,1.71,33.56-3.15,19.78-8.66,40.71-12.88,62.31-14.62,37-3,73.11.93,108,13.64,7.58,2.77,14.41,2.35,21.86.92,18.26-3.51,36.58-6.72,54.9-10,7.18-1.27,12.43,3.13,12.33,10.69-.15,11.84-2.33,23.44-4.86,35a26.35,26.35,0,0,1-1.05,3.85c-3.52,9.15-1.33,17.22,2.69,26,17.89,39.07,6.33,86-27.3,113.12-4,3.23-5.55,6.64-5.51,11.83.32,42.53-10.35,81.94-34.42,117.33-26.76,39.35-63.84,64.37-109.12,77.73-21,6.21-42.59,8.82-64.46,8.94-3.47,0-6,1.48-8.59,3.34-13.9,10-27.27,20.82-42.93,28.11-6.48,3-13,5.91-20.45,5.86-5.82,0-6.84-.75-6.89-6.52-.15-18-.16-36-.18-54Q354.94,453.06,355,420.32Z"/>
    <path class="cls-3" d="M605.62,603.11c51.31.16,94.32,40.66,94.16,93.25-.16,53.2-43.83,92.77-94.71,92.73-51.61,0-94-42.13-94-93C511.18,644.83,553.7,603,605.62,603.11Z"/>
    <path class="cls-3" d="M395.53,603.11c51.26.1,94.36,40.5,94.27,93.15-.09,53.12-43.65,92.81-94.61,92.83-51.61,0-94.09-42-94.07-92.92C301.14,644.93,343.62,603.06,395.53,603.11Z"/>
    <path class="cls-3" d="M279.24,696.64c0,29.15-.05,58.3.08,87.44,0,3.74-.72,5.57-4.89,5.11a42.93,42.93,0,0,0-9.48,0c-4.71.55-6.23-.92-6.17-5.9.28-23.32.13-46.64.13-70,0-7.12,0-7.12-7-7.12-15.32,0-30.65.12-46-.09-3.9-.06-5.09,1-5.06,5,.18,24.15,0,48.3.18,72.45,0,4.16-.68,6.18-5.38,5.64-4.92-.57-11.44,2-14.49-.9-3.32-3.16-1.06-9.76-1.07-14.85-.08-55,0-109.92-.15-164.89,0-4.32.93-6.08,5.47-5.54a41.57,41.57,0,0,0,10,0c4.87-.61,5.69,1.54,5.65,5.89-.19,23.48,0,47-.2,70.45,0,4.81,1.21,6.18,6.05,6.08,15.65-.32,31.31-.24,47,0,3.95.05,5.09-1.09,5.06-5-.17-24,0-48-.17-72,0-4,.82-5.89,5.17-5.36,4.9.6,11.26-2.07,14.39,1.14,2.89,3,.81,9.21.83,14C279.28,644.34,279.24,670.49,279.24,696.64Z"/>
    <path class="cls-3" d="M768,706.9c0,25.82-.07,51.64.08,77.47,0,3.6-.74,5.18-4.65,4.83a62.89,62.89,0,0,0-11.48,0c-4.11.39-4.94-1.24-4.93-5.06q.16-76.73.07-153.44c0-6.71,0-6.71-6.66-6.71-9.49,0-19-.11-28.48.06-3.09.05-4.11-1-4-4,.21-4.32.21-8.67,0-13-.15-3,.83-4.06,3.94-4,9.32.17,18.65.06,28,.06,20.83,0,41.65.09,62.48-.09,3.74,0,5.12,1,4.7,4.76-.59,5.23,2.27,12-1.19,15.33-3.17,3-9.85.75-15,.86-6,.12-12,.27-18-.05-4-.22-5,1.08-5,5C768.11,654.92,768,680.91,768,706.9Z"/>
    <path class="cls-1" d="M617.81,361.88c-3.21-3.23-5.87-7.07-9.72-9.7-18.54-12.69-37.75-10.06-55,5.89-13.17,12.18-24,26.7-34.88,41a451.69,451.69,0,0,1-71.74,74.64c-17.44,14.4-34.07,29.82-53.28,41.95-5.76,3.63-11.94,6.58-17.94,9.82-2.85,1.54-4.35,1.5-4.35-2.6q.15-106.22,0-212.42c0-4,1.37-3.88,4.36-2.72,35,13.54,66.84,7.93,95.61-15.85,3-2.46,4.06-1.63,5.19,1.51,3.53,9.87,7.23,19.68,10.81,29.53a19.15,19.15,0,0,0,2.6,5.36c4.3,5.65,10.67,5.21,14-1.07,6.2-11.61,12.45-23.18,18.42-34.9,1.84-3.63,2.89-4.73,6.59-1.51,18.49,16,40.12,23.9,64.62,23.26a79.86,79.86,0,0,0,27.71-5.7c3.91-1.56,5.55-1.3,5.46,3.65-.29,15.72-2.84,31.09-6.53,46.3C619.47,359.49,619.45,361,617.81,361.88Z"/>
    <path class="cls-1" d="M333,219.1c-1-42.48,33.6-79.85,77-79.7,44.33.16,78.28,36.22,78,80.52-.26,42.5-33.48,78.71-77.48,79C366.05,299.15,331.54,260.35,333,219.1Z"/>
    <path class="cls-1" d="M655,261.13c-15.18,22.84-36.17,36.19-63.82,36.81-38.29.86-71.22-26.86-78.07-64.6-8-44.11,19.42-85.67,63.45-93.46,27.94-4.95,52.39,4.14,71.2,26,14.1,16.36,20.22,35.67,19.22,57.21a76.2,76.2,0,0,1-5.91,26.12A92.47,92.47,0,0,1,655,261.13Z"/>
    <path class="cls-1" d="M454,489c10.9-10,21.91-19.87,32.67-30,19.55-18.42,35.78-39.72,52.39-60.69,7.94-10,16-20,25.2-28.91,16.07-15.5,37.78-10.13,45.07,11a9.4,9.4,0,0,1-.31,7.67c-16.9,35.07-42.16,62.23-76.45,80.85-2.77,1.51-5.64,2.81-8.47,4.2A201,201,0,0,1,484.44,487c-9.34,2.1-18.73,4.05-28.33,4.58C454.67,491.67,451.62,492.39,454,489Z"/>
    <path class="cls-1" d="M496,180.23c-12.53-26.45-32.33-44.71-60.67-53.35,12.72-14.14,107.85-15.78,133.25-2.41-3.26,2-6.91,2.32-10.2,3.58-23.71,9.13-41.52,24.74-52.64,47.75-.87,1.8-1.76,3.58-2.64,5.38-.88,1.59-1.23,3.38-1.95,5h0c-1,1.38-1.93,1.59-2.83-.2S497.28,182,496,180.23Z"/>
    <path class="cls-4" d="M500.06,248.47a139.71,139.71,0,0,0,12.15,23.9,3.15,3.15,0,0,1,.21,3.28c-4.73,9.44-9.38,18.91-15.34,28.75a291.29,291.29,0,0,1-10-28.19,4,4,0,0,1,.47-2.87C492.38,265.46,496.84,257.42,500.06,248.47Z"/>
    <path class="cls-5" d="M648.1,144.13c-5.65-5.25-12.26-9-19.07-12.49-1.1-.57-2.85-.91-2.5-2.62.28-1.34,1.9-1.2,2.93-1.41,9.09-1.84,18.21-3.54,27.31-5.34,3.59-.71,5,.66,4.36,4.24-1.07,6.53-2.07,13.08-3.1,19.61-1.43,5.4-1.88,5.52-5.9,1.59A29.15,29.15,0,0,0,648.1,144.13Z"/>
    <path class="cls-6" d="M370.34,131c-7.07,5.52-14.41,9.71-20.8,15.27-1.67,1.44-2.83.68-3.29-1.12q-2.16-8.44-4.06-16.94c-.38-1.69,0-2.94,2.34-2.44C353.12,127.59,361.74,129.27,370.34,131Z"/>
    <path class="cls-7" d="M454,489c-.35,3.93,2.78,2.09,4,1.94a248.61,248.61,0,0,0,33-6.25,174.67,174.67,0,0,0,28.88-10.45c1.36-.64,2.69-1.33,4.26-1.09-9.15,5.89-19.5,8.87-29.78,11.9-13,3.84-26.23,6.66-39.85,7.24-1.22.05-3,1.44-3.5-.24C450.41,490.11,452.4,489.48,454,489Z"/>
    <path class="cls-8" d="M648.1,144.13c2,.11,3.21,1.62,4.24,3,2.66,3.43,4.32,2.48,5.69-1,.2,2,.31,4.52-1.52,5.37-2.19,1-3.14-1.79-4.52-3A43.94,43.94,0,0,1,648.1,144.13Z"/>
    <path class="cls-9" d="M655,261.13a43.59,43.59,0,0,1,6.07-11.95A21.49,21.49,0,0,1,655,261.13Z"/>
    <path class="cls-10" d="M496,180.23c1.71,1,1.84,2.87,2.42,4.49.47,1.32,1.08,2.35,2.74,1.49,0,1.3.15,2.68-1.64,3.46A22.47,22.47,0,0,1,496,180.23Z"/>
    <path class="cls-10" d="M501.14,186.22a5.45,5.45,0,0,1,1.95-5A6.11,6.11,0,0,1,501.14,186.22Z"/>
    <path class="cls-1" d="M605.45,768.34c-40.89,0-73.34-32-73.48-72.26a72.73,72.73,0,0,1,73.52-72.51c42.58,0,73.42,33.76,73.55,72.54C679.18,736.15,646.34,768.29,605.45,768.34Z"/>
    <path class="cls-1" d="M395.36,768.34c-40.9,0-73.29-32.09-73.37-72.36a72.71,72.71,0,0,1,73.62-72.41c43,.15,73.38,34.21,73.46,72.65C469.14,736.24,436.25,768.34,395.36,768.34Z"/>
    <path class="cls-3" d="M451.25,221.37c0,21.56-16.84,38.76-38,38.76-21.64,0-39.29-18-39.34-40.07-.06-21.82,16.4-38.8,37.7-38.87C433.66,181.1,451.23,198.92,451.25,221.37Z"/>
    <path class="cls-3" d="M628.15,220.83c0,21.55-16.88,38.53-38.3,38.36C568.08,259,550.5,241.72,550.46,219c-.05-22,16.49-38.31,38.21-38.68C610.56,180,628.2,198.37,628.15,220.83Z"/>
    <path class="cls-1" d="M389.92,220.14c-.08-13.15,9.15-22.62,21.64-23,10.65-.32,24.33,11.5,23.79,24.07-.56,12.92-9.46,22.8-22,22.9C400.55,244.21,390,233.44,389.92,220.14Z"/>
    <path class="cls-1" d="M612.14,220.75c0,12.76-9.32,22.38-21.74,22.43-13.27.06-24.38-11.31-24.12-24.7.24-12,10.39-22.25,21.94-22.17C601.15,196.4,612.14,207.63,612.14,220.75Z"/>
  </g>
</svg>