<svg xmlns="http://www.w3.org/2000/svg" viewBox="0 0 2048 2048"><defs><style>.cls-1{fill:#d86a4c;}.cls-2{fill:#fcfcfc;}.cls-3{fill:#444265;}.cls-4{fill:#454264;}.cls-5{fill:#464264;}.cls-6{fill:#484364;}.cls-7{fill:#784f5b;}.cls-8{fill:#ad5e52;}.cls-9{fill:#855359;}.cls-10{fill:#774f5b;}</style></defs><g id="Ebene_2" data-name="Ebene 2"><circle class="cls-1" cx="1024" cy="1027.9" r="507.48"/></g><g id="Ebene_1" data-name="Ebene 1"><path class="cls-2" d="M517.25,1006.6c0,5.81.2,11.63-.73,17.4C516.8,1018.2,515.43,1012.33,517.25,1006.6Z"/><path class="cls-2" d="M516.52,1037.13c.93,5.77.77,11.59.73,17.41C515.43,1048.8,516.79,1042.93,516.52,1037.13Z"/><path class="cls-2" d="M517.53,1063.14c1,2.39.78,4.9.71,7.39C516.64,1068.2,517.68,1065.61,517.53,1063.14Z"/><path class="cls-2" d="M518.24,990.6c.07,2.49.29,5-.71,7.39C517.68,995.52,516.65,992.93,518.24,990.6Z"/><path class="cls-2" d="M519.23,979.6a9.51,9.51,0,0,1-.7,5.37C518.59,983.16,517.82,981.24,519.23,979.6Z"/><path class="cls-2" d="M518.53,1076.14c.93,1.71.82,3.55.7,5.39C517.82,1079.89,518.6,1078,518.53,1076.14Z"/><path class="cls-3" d="M871.26,940.74c0-39.15,0-78.3.07-117.45,0-4.51-1.34-7.48-4.9-10.61-20.13-17.75-31.45-40.08-33.12-67a95.25,95.25,0,0,1,15.29-58.87,8.2,8.2,0,0,0,1-7c-3-11.92-5.81-23.9-8.66-35.87-.83-3.45-1.23-6.94.45-10.25,2.26-4.46,6.74-6,13.5-4.63,15.49,3,31,6,46.45,9.13,11.52,2.33,22.44,1.72,33.56-3.14,19.78-8.66,40.71-12.88,62.31-14.62,37-3,73.1.93,108,13.64,7.58,2.76,14.42,2.35,21.86.91,18.27-3.51,36.59-6.71,54.9-10,7.18-1.28,12.44,3.12,12.34,10.69-.15,11.84-2.33,23.44-4.87,35a26.32,26.32,0,0,1-1,3.85c-3.53,9.14-1.33,17.22,2.69,26,17.89,39.07,6.33,86-27.3,113.12-4,3.22-5.55,6.63-5.51,11.82.32,42.53-10.36,82-34.42,117.33-26.77,39.36-63.85,64.37-109.12,77.74-21,6.2-42.59,8.81-64.47,8.94-3.47,0-6,1.48-8.58,3.34-13.91,10-27.28,20.82-42.93,28.11-6.49,3-13,5.91-20.46,5.86-5.81,0-6.83-.75-6.88-6.52-.15-18-.16-36-.18-54Q871.24,973.47,871.26,940.74Z"/><path class="cls-3" d="M1121.9,1123.53c51.32.16,94.33,40.66,94.17,93.25-.16,53.19-43.84,92.77-94.71,92.72-51.61,0-94-42.13-94-93C1027.46,1165.25,1070,1123.43,1121.9,1123.53Z"/><path class="cls-3" d="M911.82,1123.53c51.26.1,94.36,40.5,94.27,93.14-.09,53.13-43.66,92.82-94.61,92.83-51.62,0-94.09-42-94.07-92.91C817.43,1165.34,859.9,1123.47,911.82,1123.53Z"/><path class="cls-3" d="M795.53,1217.06c0,29.15-.06,58.29.07,87.44,0,3.74-.72,5.57-4.89,5.11a41.65,41.65,0,0,0-9.47,0c-4.72.55-6.23-.92-6.17-5.9.28-23.32.12-46.64.12-70,0-7.12,0-7.13-6.94-7.13-15.33,0-30.65.13-46-.08-3.9-.06-5.09,1-5.06,5,.18,24.15,0,48.3.18,72.45,0,4.16-.68,6.18-5.38,5.64-4.93-.57-11.45,2-14.49-.9-3.33-3.16-1.07-9.76-1.07-14.85-.09-55,0-109.93-.15-164.89,0-4.32.92-6.08,5.46-5.54a41.65,41.65,0,0,0,10,0c4.87-.61,5.68,1.54,5.65,5.88-.19,23.49.05,47-.21,70.46-.05,4.81,1.21,6.17,6.06,6.08,15.65-.32,31.31-.25,47,0,3.95.05,5.1-1.1,5.07-5-.17-24,0-48-.17-72,0-4,.81-5.88,5.17-5.35,4.89.59,11.25-2.07,14.39,1.14,2.89,3,.81,9.21.82,14C795.57,1164.76,795.53,1190.91,795.53,1217.06Z"/><path class="cls-3" d="M1284.32,1227.32c0,25.82-.07,51.64.07,77.46,0,3.6-.73,5.18-4.65,4.83a63.8,63.8,0,0,0-11.48,0c-4.1.39-4.94-1.25-4.93-5.06q.18-76.72.08-153.44c0-6.71,0-6.71-6.66-6.71-9.5,0-19-.11-28.49.06-3.09,0-4.1-1-4-4,.2-4.32.21-8.67,0-13-.15-3,.84-4.06,3.94-4,9.33.18,18.66.07,28,.07,20.82,0,41.65.09,62.47-.09,3.75,0,5.13,1,4.71,4.75-.59,5.23,2.26,12-1.19,15.33-3.18,3-9.85.76-15,.87-6,.12-12,.26-18-.06-4-.21-5,1.09-5,5C1284.4,1175.34,1284.32,1201.33,1284.32,1227.32Z"/><path class="cls-1" d="M1134.09,882.3c-3.2-3.24-5.87-7.07-9.72-9.7-18.53-12.69-37.75-10.06-55,5.89-13.18,12.18-24,26.7-34.88,41a452.16,452.16,0,0,1-71.74,74.65c-17.45,14.39-34.08,29.82-53.29,41.94-5.75,3.64-11.93,6.59-17.94,9.83-2.85,1.53-4.35,1.5-4.34-2.6q.15-106.21,0-212.42c0-4,1.37-3.88,4.36-2.72,35,13.54,66.85,7.93,95.62-15.85,3-2.47,4.06-1.64,5.18,1.51,3.54,9.87,7.23,19.68,10.81,29.53a19.56,19.56,0,0,0,2.6,5.36c4.31,5.64,10.68,5.2,14-1.08,6.19-11.6,12.45-23.17,18.41-34.89,1.85-3.63,2.89-4.73,6.6-1.52,18.48,16,40.12,23.91,64.61,23.27a79.92,79.92,0,0,0,27.72-5.7c3.91-1.57,5.54-1.3,5.45,3.64-.28,15.73-2.84,31.09-6.53,46.31C1135.76,879.9,1135.74,881.41,1134.09,882.3Z"/><path class="cls-1" d="M849.26,739.52c-1-42.48,33.59-79.86,77-79.7,44.34.16,78.28,36.22,78,80.52-.26,42.5-33.48,78.71-77.48,79C882.34,819.57,847.83,780.77,849.26,739.52Z"/><path class="cls-1" d="M1171.32,781.54c-15.18,22.84-36.18,36.2-63.82,36.82-38.3.86-71.23-26.86-78.07-64.61-8-44.1,19.41-85.66,63.44-93.45,28-4.95,52.4,4.14,71.2,26,14.1,16.35,20.23,35.67,19.23,57.2a76.22,76.22,0,0,1-5.92,26.13A92.91,92.91,0,0,1,1171.32,781.54Z"/><path class="cls-1" d="M970.3,1009.44c10.9-10,21.9-19.87,32.66-30,19.55-18.42,35.78-39.72,52.39-60.7,7.94-10,16-20,25.21-28.9,16.06-15.51,37.78-10.13,45.07,11a9.4,9.4,0,0,1-.31,7.67c-16.9,35.08-42.17,62.24-76.45,80.86-2.77,1.5-5.65,2.81-8.47,4.2a201.49,201.49,0,0,1-39.67,13.84c-9.35,2.1-18.73,4-28.33,4.58C971,1012.09,967.91,1012.8,970.3,1009.44Z"/><path class="cls-1" d="M1012.28,700.64c-12.53-26.44-32.34-44.7-60.68-53.34,12.72-14.15,107.86-15.78,133.26-2.41-3.26,2-6.92,2.31-10.21,3.58-23.71,9.13-41.52,24.74-52.63,47.75-.87,1.79-1.77,3.58-2.65,5.37-.88,1.6-1.23,3.39-2,5h0c-1,1.38-1.93,1.59-2.82-.2S1013.56,702.36,1012.28,700.64Z"/><path class="cls-4" d="M1016.34,768.89a139.71,139.71,0,0,0,12.15,23.9,3.1,3.1,0,0,1,.21,3.28c-4.72,9.43-9.38,18.91-15.34,28.75a292.26,292.26,0,0,1-10-28.2,4,4,0,0,1,.47-2.86C1008.66,785.88,1013.13,777.84,1016.34,768.89Z"/><path class="cls-5" d="M1164.39,664.54c-5.65-5.24-12.26-9-19.08-12.49-1.1-.56-2.84-.9-2.49-2.61.27-1.34,1.9-1.2,2.93-1.41,9.09-1.84,18.2-3.55,27.3-5.34,3.59-.71,5,.65,4.37,4.24-1.08,6.53-2.08,13.07-3.11,19.61-1.42,5.39-1.87,5.52-5.89,1.58A30.43,30.43,0,0,0,1164.39,664.54Z"/><path class="cls-6" d="M886.63,651.42c-7.08,5.52-14.41,9.71-20.81,15.26-1.66,1.45-2.83.69-3.29-1.11q-2.14-8.45-4.06-17c-.37-1.68,0-2.93,2.35-2.43C869.41,648,878,649.69,886.63,651.42Z"/><path class="cls-7" d="M970.3,1009.44c-.36,3.92,2.78,2.09,4,1.94a247.18,247.18,0,0,0,33-6.26,175.29,175.29,0,0,0,28.88-10.44,7.26,7.26,0,0,1,4.26-1.09c-9.16,5.89-19.51,8.87-29.78,11.9-13,3.84-26.24,6.66-39.86,7.24-1.22,0-3,1.43-3.5-.25C966.69,1010.53,968.69,1009.9,970.3,1009.44Z"/><path class="cls-8" d="M1164.39,664.54c2,.12,3.2,1.63,4.24,3,2.66,3.43,4.32,2.48,5.69-1,.2,2,.31,4.52-1.53,5.36-2.19,1-3.13-1.78-4.51-3A42.83,42.83,0,0,1,1164.39,664.54Z"/><path class="cls-9" d="M1171.32,781.54a43.65,43.65,0,0,1,6.06-11.94A21.35,21.35,0,0,1,1171.32,781.54Z"/><path class="cls-10" d="M1012.28,700.64c1.71,1,1.84,2.88,2.42,4.5.47,1.31,1.08,2.35,2.73,1.49,0,1.29.16,2.68-1.64,3.46A22.45,22.45,0,0,1,1012.28,700.64Z"/><path class="cls-10" d="M1017.42,706.63a5.47,5.47,0,0,1,2-5A6.08,6.08,0,0,1,1017.42,706.63Z"/><path class="cls-1" d="M1121.73,1288.76c-40.88,0-73.33-32-73.47-72.26a72.72,72.72,0,0,1,73.51-72.51c42.58,0,73.42,33.75,73.56,72.54C1195.47,1256.56,1162.62,1288.71,1121.73,1288.76Z"/><path class="cls-1" d="M911.65,1288.75c-40.9,0-73.29-32.08-73.37-72.36A72.71,72.71,0,0,1,911.9,1144c43,.15,73.38,34.21,73.45,72.65C985.43,1256.65,952.54,1288.76,911.65,1288.75Z"/><path class="cls-3" d="M967.53,741.79c0,21.56-16.83,38.76-38,38.75-21.65,0-39.29-18-39.35-40.07-.05-21.81,16.41-38.79,37.7-38.87C949.94,701.52,967.52,719.34,967.53,741.79Z"/><path class="cls-3" d="M1144.44,741.25c0,21.55-16.88,38.52-38.31,38.36-21.77-.17-39.34-17.48-39.39-40.16,0-22,16.5-38.31,38.21-38.69C1126.85,700.39,1144.49,718.79,1144.44,741.25Z"/><path class="cls-1" d="M906.21,740.56c-.08-13.15,9.15-22.62,21.63-23,10.66-.32,24.34,11.49,23.8,24.07-.56,12.92-9.47,22.8-21.95,22.9C916.84,764.63,906.29,753.86,906.21,740.56Z"/><path class="cls-1" d="M1128.43,741.17c0,12.76-9.32,22.37-21.75,22.43-13.27.06-24.37-11.31-24.11-24.7.23-12,10.38-22.25,21.94-22.17C1117.43,716.81,1128.43,728,1128.43,741.17Z"/></g></svg>