<?xml version="1.0" encoding="utf-8"?>
<svg viewBox="226.49 182.67 594.805 731.031" version="1.1" id="svg58" width="1015.1967" height="1014.96" xmlns="http://www.w3.org/2000/svg">
  <defs id="defs4">
    <style id="style2">.cls-1{fill:#444265;}.cls-2{fill:#fcfcfc;}.cls-3{fill:#d86a4c;}.cls-4{fill:#454264;}.cls-5{fill:#464264;}.cls-6{fill:#484364;}.cls-7{fill:#784f5b;}.cls-8{fill:#ad5e52;}.cls-9{fill:#855359;}.cls-10{fill:#774f5b;}</style>
  </defs>
  <g id="Ebene_1" data-name="Ebene 1" transform="translate(-516.28329,-520.42001)">
    <path class="cls-3" d="m 805.79,1224.69 c 0,-63.26 -0.09,-126.53 0.1,-189.8 0,-7.29 -2.16,-12.08 -7.91,-17.15 -32.53,-28.67 -50.83,-64.77 -53.52,-108.3 -2.12,-34.35 6,-66.15 24.71,-95.13 2.37,-3.67 2.78,-7.07 1.69,-11.39 -4.89,-19.26 -9.39,-38.63 -14,-58 -1.33,-5.58 -2,-11.21 0.73,-16.56 3.65,-7.22 10.89,-9.62 21.83,-7.48 25,4.9 50.05,9.71 75.05,14.75 18.62,3.76 36.27,2.78 54.23,-5.08 32,-14 65.79,-20.81 100.69,-23.63 59.83,-4.82 118.14,1.51 174.52,22 12.25,4.46 23.3,3.79 35.32,1.48 29.52,-5.68 59.13,-10.86 88.72,-16.11 11.6,-2.06 20.09,5 19.93,17.28 -0.25,19.13 -3.77,37.88 -7.86,56.51 a 42.28,42.28 0 0 1 -1.69,6.22 c -5.69,14.78 -2.15,27.82 4.35,42 28.91,63.13 10.23,139 -44.12,182.79 -6.48,5.22 -9,10.72 -8.91,19.11 0.53,68.73 -16.73,132.42 -55.61,189.6 -43.25,63.59 -103.17,104 -176.33,125.62 -34,10 -68.83,14.25 -104.18,14.44 -5.61,0 -9.67,2.39 -13.87,5.41 -22.47,16.14 -44.08,33.63 -69.37,45.42 -10.49,4.89 -21.09,9.55 -33.06,9.46 -9.39,-0.07 -11,-1.2 -11.12,-10.53 -0.25,-29.07 -0.27,-58.14 -0.3,-87.22 q -0.06,-52.8 -0.02,-105.71 z" id="path21"/>
    <path class="cls-1" d="m 1230.51,1130.25 c -5.17,-5.23 -9.49,-11.42 -15.7,-15.68 -30,-20.5 -61,-16.25 -88.88,9.52 -21.29,19.69 -38.75,43.15 -56.36,66.22 a 730.38,730.38 0 0 1 -115.93,120.62 c -28.19,23.26 -55.06,48.19 -86.1,67.78 -9.3,5.87 -19.3,10.64 -29,15.87 -4.61,2.49 -7,2.43 -7,-4.2 q 0.22,-171.63 0,-343.26 c 0,-6.53 2.21,-6.27 7,-4.4 56.52,21.88 108,12.82 154.51,-25.6 4.83,-4 6.56,-2.65 8.38,2.44 5.71,15.94 11.68,31.79 17.47,47.71 a 31.43,31.43 0 0 0 4.2,8.66 c 6.95,9.13 17.25,8.42 22.66,-1.73 10,-18.75 20.12,-37.45 29.76,-56.39 3,-5.87 4.67,-7.64 10.66,-2.45 29.87,25.92 64.83,38.63 104.41,37.59 a 129,129 0 0 0 44.79,-9.2 c 6.32,-2.53 9,-2.1 8.82,5.89 -0.46,25.41 -4.59,50.24 -10.56,74.83 -0.44,1.91 -0.47,4.34 -3.13,5.78 z" id="path23"/>
    <path class="cls-1" d="m 770.22,899.52 c -1.59,-68.65 54.3,-129 124.43,-128.79 71.64,0.26 126.5,58.53 126.07,130.11 -0.42,68.69 -54.11,127.2 -125.2,127.62 -71.83,0.42 -127.6,-62.28 -125.3,-128.94 z" id="path25"/>
    <path class="cls-1" d="m 1290.67,967.43 c -24.53,36.91 -58.46,58.5 -103.14,59.5 -61.88,1.39 -115.09,-43.41 -126.15,-104.4 -12.92,-71.28 31.37,-138.44 102.52,-151 45.16,-8 84.67,6.7 115.06,42 22.79,26.43 32.68,57.64 31.06,92.44 a 123,123 0 0 1 -9.56,42.22 c -2.99,6.52 -5.88,13.14 -9.79,19.24 z" id="path27"/>
    <path class="cls-1" d="m 965.83,1335.71 c 17.61,-16.16 35.39,-32.12 52.78,-48.5 31.59,-29.77 57.82,-64.19 84.66,-98.08 12.83,-16.2 25.82,-32.32 40.73,-46.71 26,-25.06 61,-16.37 72.84,17.83 a 15.27,15.27 0 0 1 -0.5,12.39 c -27.32,56.68 -68.15,100.57 -123.55,130.67 -4.47,2.42 -9.12,4.53 -13.69,6.78 -20.66,9.49 -41.89,17.36 -64.1,22.36 -15.1,3.4 -30.27,6.54 -45.78,7.4 -2.34,0.15 -7.22,1.29 -3.39,-4.14 z" id="path29"/>
    <path class="cls-1" d="m 1033.66,836.7 c -20.24,-42.74 -52.25,-72.24 -98.05,-86.2 20.56,-22.86 174.29,-25.5 215.39,-3.9 -5.26,3.25 -11.17,3.74 -16.49,5.79 -38.32,14.76 -67.1,40 -85.06,77.16 -1.4,2.9 -2.85,5.79 -4.27,8.69 -1.42,2.57 -2,5.47 -3.15,8.14 v 0 c -1.69,2.23 -3.12,2.56 -4.56,-0.33 -1.44,-2.89 -1.73,-6.57 -3.81,-9.35 z" id="path31"/>
    <path class="cls-4" d="m 1040.24,947 c 5.18,13.87 12.15,26.38 19.63,38.62 a 5.1,5.1 0 0 1 0.34,5.31 c -7.64,15.24 -15.16,30.55 -24.79,46.45 a 470.81,470.81 0 0 1 -16.09,-45.56 6.5,6.5 0 0 1 0.76,-4.62 c 7.73,-12.76 14.91,-25.75 20.15,-40.2 z" id="path33"/>
    <path class="cls-5" d="m 1279.47,778.37 c -9.13,-8.48 -19.81,-14.58 -30.82,-20.19 -1.78,-0.91 -4.6,-1.46 -4,-4.22 0.44,-2.16 3.07,-1.94 4.74,-2.28 14.68,-3 29.42,-5.73 44.12,-8.64 5.8,-1.14 8,1.07 7,6.86 -1.73,10.55 -3.35,21.13 -5,31.69 -2.31,8.72 -3,8.92 -9.53,2.56 a 48.23,48.23 0 0 0 -6.51,-5.78 z" id="path35"/>
    <path class="cls-6" d="m 830.62,757.16 c -11.44,8.92 -23.29,15.69 -33.62,24.66 -2.69,2.33 -4.57,1.11 -5.32,-1.8 q -3.46,-13.63 -6.56,-27.38 c -0.61,-2.73 0,-4.75 3.79,-3.93 13.88,2.93 27.8,5.65 41.71,8.45 z" id="path37"/>
    <path class="cls-3" d="m 961.36,903.18 c 0,34.85 -27.21,62.65 -61.36,62.63 -35,0 -63.5,-29 -63.59,-64.75 -0.09,-35.25 26.52,-62.68 60.92,-62.81 35.6,-0.13 64,28.67 64.03,64.93 z" id="path49"/>
    <path class="cls-3" d="m 1247.23,902.31 c -0.08,34.83 -27.28,62.26 -61.9,62 -35.18,-0.27 -63.58,-28.23 -63.65,-64.89 -0.07,-35.55 26.65,-61.91 61.74,-62.51 35.38,-0.62 63.89,29.09 63.81,65.4 z" id="path51"/>
    <path class="cls-1" d="m 862.26,901.2 c -0.13,-21.24 14.79,-36.55 35,-37.17 17.22,-0.52 39.33,18.58 38.45,38.91 -0.91,20.87 -15.29,36.83 -35.47,37 -20.8,0.16 -37.84,-17.24 -37.98,-38.74 z" id="path53"/>
    <path class="cls-1" d="m 1221.35,902.18 c 0,20.63 -15.06,36.17 -35.13,36.26 -21.45,0.09 -39.39,-18.29 -39,-39.92 0.38,-19.37 16.78,-35.95 35.45,-35.83 20.92,0.14 38.68,18.31 38.68,39.49 z" id="path55"/>
  </g>
</svg>